# Blender 4.3.2
# www.blender.org
mtllib banner.mtl
o Cube
v -0.000000 1.000000 -1.000000
v -0.000000 -1.000000 -1.000000
v -0.000000 1.000000 1.000000
v 0.000000 -1.000000 1.000000
v -0.000000 1.000000 -1.000000
v -0.000000 -1.000000 -1.000000
v -0.000000 1.000000 1.000000
v 0.000000 -1.000000 1.000000
vn -1.0000 -0.0000 -0.0000
vn 1.0000 -0.0000 -0.0000
vt 0.000000 0.000000
vt 1.000000 0.000000
vt 1.000000 1.000000
vt 0.000000 1.000000
s 1
usemtl Material.001
f 8/1/1 7/1/1 5/1/1 6/1/1
f 2/2/2 1/3/2 3/4/2 4/1/2
