# Blender 4.3.2
# www.blender.org
o Cube
v 3.998879 0.000000 -0.163011
v -3.998879 0.000000 0.163011
v 3.998879 0.000000 0.163011
v -3.998879 0.000000 -0.163011
v -3.998879 0.500000 0.163011
v 3.998879 0.500000 -0.163011
v 3.998879 0.500000 0.163011
v -3.998879 0.500000 -0.163011
v -0.236267 -1.000000 -0.163011
v -0.236267 1.000000 0.163011
v -0.236267 -1.000000 0.163011
v -0.236267 1.000000 -0.163011
v -0.236267 0.000000 -0.163011
v -0.236267 0.000000 0.163011
v -0.236267 0.500000 -0.163011
v -0.236267 0.500000 0.163011
v -3.543733 -1.000000 -0.163011
v -3.543733 1.000000 0.163011
v -3.543733 0.000000 0.163011
v -3.543733 0.500000 0.163011
v -3.543733 -1.000000 0.163011
v -3.543733 1.000000 -0.163011
v -3.543733 0.000000 -0.163011
v -3.543733 0.500000 -0.163011
v 3.543733 -1.000000 0.163011
v 3.543733 1.000000 -0.163011
v 3.543733 0.000000 -0.163011
v 3.543733 0.500000 -0.163011
v 3.543733 -1.000000 -0.163011
v 3.543733 1.000000 0.163011
v 3.543733 0.000000 0.163011
v 3.543733 0.500000 0.163011
v 0.226678 -1.000000 -0.163011
v 0.226678 1.000000 0.163011
v 0.226678 0.000000 0.163011
v 0.226678 0.500000 0.163011
v 0.226678 -1.000000 0.163011
v 0.226678 1.000000 -0.163011
v 0.226678 0.000000 -0.163011
v 0.226678 0.500000 -0.163011
v -3.137492 -1.000000 0.163011
v -3.137492 1.000000 -0.163011
v -3.137492 0.000000 -0.163011
v -3.137492 0.500000 -0.163011
v -3.137492 -1.000000 -0.163011
v -3.137492 1.000000 0.163011
v -3.137492 0.000000 0.163011
v -3.137492 0.500000 0.163011
v 3.105483 -1.000000 0.163011
v 3.105483 1.000000 -0.163011
v 3.105483 0.000000 -0.163011
v 3.105483 0.500000 -0.163011
v 3.105483 -1.000000 -0.163011
v 3.105483 1.000000 0.163011
v 3.105483 0.000000 0.163011
v 3.105483 0.500000 0.163011
vn -0.0000 -0.0000 -1.0000
vn 1.0000 -0.0000 -0.0000
vn -1.0000 -0.0000 -0.0000
vn -0.0000 -0.0000 1.0000
vn -0.0000 -1.0000 -0.0000
vn -0.0000 1.0000 -0.0000
vt 0.125035 0.056909
vt 0.062518 0.056909
vt 0.062518 0.000000
vt 0.125035 0.000000
vt 0.581669 0.562658
vt 0.581669 0.500140
vt 0.622433 0.500140
vt 0.622433 0.562658
vt 0.581669 0.625175
vt 0.622433 0.625175
vt 0.375105 0.056909
vt 0.312588 0.056909
vt 0.312588 -0.000000
vt 0.375105 -0.000000
vt 0.375105 0.528343
vt 0.312588 0.528343
vt 0.312588 0.470458
vt 0.375105 0.470458
vt 0.125035 0.892296
vt 0.062518 0.892296
vt 0.062518 0.529542
vt 0.125035 0.529542
vt 0.500140 0.528343
vt 0.500140 0.470458
vt 0.540905 0.844938
vt 0.540905 0.719903
vt 0.581669 0.719903
vt 0.581669 0.844938
vt 0.500140 0.000000
vt 0.540905 0.000000
vt 0.540905 0.362755
vt 0.500140 0.362755
vt 0.581669 0.969973
vt 0.540905 0.969973
vt 0.250070 0.528343
vt 0.250070 0.470458
vt 0.663197 0.062518
vt 0.663197 0.120402
vt 0.622433 0.120402
vt 0.622433 0.062518
vt 0.125035 1.000000
vt 0.062518 1.000000
vt 0.062518 0.943091
vt 0.125035 0.943091
vt 0.375105 0.107704
vt 0.312588 0.107704
vt 0.500140 0.107704
vt 0.500140 0.056909
vt 0.250070 0.107704
vt 0.250070 0.056909
vt 0.663198 0.458607
vt 0.663198 0.509402
vt 0.622433 0.509402
vt 0.622433 0.458607
vt 0.375105 1.000000
vt 0.312588 1.000000
vt 0.312588 0.943091
vt 0.375105 0.943091
vt 0.125035 0.111706
vt 0.062518 0.111706
vt 0.250070 0.111706
vt 0.250070 0.056909
vt 0.000000 0.111706
vt 0.000000 0.056909
vt 0.663198 0.349014
vt 0.663198 0.403811
vt 0.622433 0.403811
vt 0.622433 0.349014
vt 0.663197 0.120402
vt 0.663197 0.178286
vt 0.622433 0.178286
vt 0.622433 0.120402
vt 0.000000 0.529542
vt 0.000000 0.471657
vt 0.062518 0.471657
vt 0.250070 0.529542
vt 0.125035 0.471657
vt 0.250070 0.471657
vt 0.375105 0.888294
vt 0.312588 0.888294
vt 0.622433 0.000000
vt 0.622433 0.125035
vt 0.581669 0.125035
vt 0.581669 0.000000
vt 0.581669 0.250070
vt 0.622433 0.250070
vt 0.663197 0.509402
vt 0.663197 0.560196
vt 0.622433 0.560196
vt 0.622433 0.509402
vt 0.000000 0.943091
vt 0.000000 0.892296
vt 0.250070 0.943091
vt 0.250070 0.892296
vt 0.500140 0.943091
vt 0.500140 0.888294
vt 0.250070 0.943091
vt 0.250070 0.888294
vt 0.663197 0.403811
vt 0.663197 0.458607
vt 0.622433 0.458607
vt 0.622433 0.403811
vt 0.581669 0.000000
vt 0.581669 0.359951
vt 0.540905 0.359951
vt 0.540905 -0.000000
vt 0.581669 0.375105
vt 0.622433 0.375105
vt 0.663198 0.178286
vt 0.663198 0.235196
vt 0.622433 0.235196
vt 0.622433 0.178286
vt 0.663197 0.292105
vt 0.622433 0.292105
vt 0.622433 0.235196
vt 0.663197 0.235196
vt 0.622433 0.687693
vt 0.581669 0.687693
vt 0.581669 0.750210
vt 0.622433 0.750210
vt 0.540905 0.359951
vt 0.581669 0.359951
vt 0.581669 0.719903
vt 0.540905 0.719903
vt 0.581669 0.812728
vt 0.622433 0.812728
vt 0.622433 0.875245
vt 0.581669 0.875245
vt 0.540904 0.725509
vt 0.500140 0.725509
vt 0.622433 0.937763
vt 0.581669 0.937763
vt 0.622433 0.062518
vt 0.663197 0.000000
vt 0.622433 0.292105
vt 0.663198 0.292105
s 0
f 27/1/1 28/2/1 6/3/1 1/4/1
f 1/5/2 6/6/2 7/7/2 3/8/2
f 2/9/3 5/5/3 8/8/3 4/10/3
f 19/11/4 20/12/4 5/13/4 2/14/4
f 35/15/4 36/16/4 16/17/4 14/18/4
f 43/19/1 44/20/1 15/21/1 13/22/1
f 37/23/4 35/15/4 14/18/4 11/24/4
f 11/25/3 14/26/3 13/27/3 9/28/3
f 47/29/5 43/30/5 13/31/5 14/32/5
f 35/28/2 37/33/2 33/34/2 39/25/2
f 36/16/4 34/35/4 10/36/4 16/17/4
f 38/37/6 12/38/6 10/39/6 34/40/6
f 4/41/1 8/42/1 24/43/1 23/44/1
f 47/45/4 48/46/4 20/12/4 19/11/4
f 41/47/4 47/45/4 19/11/4 21/48/4
f 48/46/4 46/49/4 18/50/4 20/12/4
f 42/51/6 22/52/6 18/53/6 46/54/6
f 3/55/4 7/56/4 32/57/4 31/58/4
f 51/59/1 52/60/1 28/2/1 27/1/1
f 53/61/1 51/59/1 27/1/1 29/62/1
f 52/60/1 50/63/1 26/64/1 28/2/1
f 53/65/5 29/66/5 25/67/5 49/68/5
f 9/69/5 33/70/5 37/71/5 11/72/5
f 15/21/1 12/73/1 38/74/1 40/75/1
f 9/76/1 13/22/1 39/77/1 33/78/1
f 13/22/1 15/21/1 40/75/1 39/77/1
f 55/79/4 56/80/4 36/16/4 35/15/4
f 47/81/2 41/82/2 45/83/2 43/84/2
f 21/85/3 19/83/3 23/82/3 17/86/3
f 14/18/4 16/17/4 48/46/4 47/45/4
f 17/87/5 45/88/5 41/89/5 21/90/5
f 24/43/1 22/91/1 42/92/1 44/20/1
f 17/93/1 23/44/1 43/19/1 45/94/1
f 23/44/1 24/43/1 44/20/1 43/19/1
f 31/58/4 32/57/4 56/80/4 55/79/4
f 25/95/4 31/58/4 55/79/4 49/96/4
f 32/57/4 30/97/4 54/98/4 56/80/4
f 26/99/6 50/100/6 54/101/6 30/102/6
f 39/77/1 40/75/1 52/60/1 51/59/1
f 39/103/5 51/104/5 55/105/5 35/106/5
f 49/107/3 55/85/3 51/86/3 53/108/3
f 25/7/2 29/6/2 27/107/2 31/108/2
f 27/109/5 1/110/5 3/111/5 31/112/5
f 28/113/6 32/114/6 7/115/6 6/116/6
f 30/10/2 32/117/2 28/118/2 26/9/2
f 56/119/3 54/118/3 50/117/3 52/120/3
f 56/121/6 52/122/6 40/123/6 36/124/6
f 40/125/2 38/119/2 34/120/2 36/126/2
f 15/127/3 16/128/3 10/125/3 12/126/3
f 44/129/6 48/130/6 16/32/6 15/31/6
f 46/127/2 48/131/2 44/132/2 42/128/2
f 24/37/3 20/133/3 18/81/3 22/134/3
f 5/68/6 20/135/6 24/136/6 8/65/6
